<svg width="45" height="45" viewBox="0 0 56 56" fill="none" xmlns="http://www.w3.org/2000/svg">
<g id="Group 1171275966">
<circle id="Ellipse 652" cx="28.4718" cy="27.9981" r="27.5265" fill="#335EF7"/>
<g id="add_a_photo">
<mask id="mask0_1117_2628" style="mask-type:alpha" maskUnits="userSpaceOnUse" x="10" y="10" width="40" height="40">
<rect id="Bounding box" x="10.6609" y="10.1865" width="38.8609" height="38.8609" fill="white"/>
</mask>
<g mask="url(#mask0_1117_2628)">
<path id="add_a_photo_2" d="M15.5184 44.1897C14.6279 44.1897 13.8655 43.8727 13.2313 43.2385C12.5971 42.6043 12.28 41.8419 12.28 40.9513V21.5209C12.28 20.6303 12.5971 19.868 13.2313 19.2338C13.8655 18.5996 14.6279 18.2825 15.5184 18.2825H20.6189L23.6145 15.0441H33.3297V18.2825H25.0313L22.0762 21.5209H15.5184V40.9513H41.4257V26.3785H44.6641V40.9513C44.6641 41.8419 44.347 42.6043 43.7128 43.2385C43.0786 43.8727 42.3163 44.1897 41.4257 44.1897H15.5184ZM41.4257 21.5209V18.2825H38.1873V15.0441H41.4257V11.8057H44.6641V15.0441H47.9025V18.2825H44.6641V21.5209H41.4257ZM28.4721 38.5225C30.4961 38.5225 32.2165 37.8141 33.6333 36.3973C35.0501 34.9805 35.7585 33.2601 35.7585 31.2361C35.7585 29.2121 35.0501 27.4917 33.6333 26.0749C32.2165 24.6581 30.4961 23.9497 28.4721 23.9497C26.4481 23.9497 24.7277 24.6581 23.3109 26.0749C21.8941 27.4917 21.1857 29.2121 21.1857 31.2361C21.1857 33.2601 21.8941 34.9805 23.3109 36.3973C24.7277 37.8141 26.4481 38.5225 28.4721 38.5225ZM28.4721 35.2841C27.3386 35.2841 26.3806 34.8928 25.598 34.1102C24.8154 33.3276 24.4241 32.3696 24.4241 31.2361C24.4241 30.1027 24.8154 29.1446 25.598 28.362C26.3806 27.5794 27.3386 27.1881 28.4721 27.1881C29.6055 27.1881 30.5635 27.5794 31.3462 28.362C32.1288 29.1446 32.5201 30.1027 32.5201 31.2361C32.5201 32.3696 32.1288 33.3276 31.3462 34.1102C30.5635 34.8928 29.6055 35.2841 28.4721 35.2841Z" fill="white"/>
</g>
</g>
</g>
</svg>
