<svg width="82" height="82" viewBox="0 0 82 82" fill="none" xmlns="http://www.w3.org/2000/svg">
<path d="M0 40C0 21.1438 0 11.7157 5.85786 5.85786C11.7157 0 21.1438 0 40 0H42C60.8562 0 70.2843 0 76.1421 5.85786C82 11.7157 82 21.1438 82 40V42C82 60.8562 82 70.2843 76.1421 76.1421C70.2843 82 60.8562 82 42 82H40C21.1438 82 11.7157 82 5.85786 76.1421C0 70.2843 0 60.8562 0 42V40Z" fill="#F8D57E" fill-opacity="0.2"/>
<path opacity="0.2" d="M36.8003 52.5497L29.4503 45.1997L26.2182 54.1083C26.1289 54.3421 26.1091 54.5967 26.1613 54.8414C26.2135 55.0862 26.3355 55.3106 26.5124 55.4876C26.6894 55.6645 26.9138 55.7865 27.1585 55.8387C27.4033 55.8909 27.6579 55.8711 27.8917 55.7817L36.8003 52.5497Z" fill="#F8D57E"/>
<path opacity="0.2" d="M52.612 44.8424L52.6122 44.8426C52.7604 44.9895 52.8691 45.1716 52.9281 45.3717C52.9871 45.5719 52.9946 45.7838 52.9498 45.9877C52.905 46.1915 52.8094 46.3807 52.6719 46.5377C52.5344 46.6948 52.3595 46.8145 52.1633 46.8858L45.4812 49.3141L32.6855 36.5185L35.1139 29.8363C35.1852 29.6402 35.3049 29.4652 35.4619 29.3277C35.6189 29.1902 35.8081 29.0946 36.012 29.0498C36.2158 29.0051 36.4277 29.0125 36.6279 29.0715C36.8281 29.1306 37.0101 29.2392 37.1571 29.3875L37.1573 29.3877L52.612 44.8424Z" fill="#F8D57E" stroke="#F8D57E" stroke-width="0.148438"/>
<path d="M26.2182 54.1086L35.0448 29.811C35.1204 29.6031 35.2473 29.4176 35.4137 29.2719C35.5801 29.1261 35.7807 29.0248 35.9967 28.9773C36.2128 28.9299 36.4374 28.9378 36.6496 29.0004C36.8617 29.0629 37.0547 29.1781 37.2104 29.3352L52.6651 44.7899C52.8222 44.9456 52.9374 45.1386 53 45.3508C53.0625 45.563 53.0704 45.7875 53.023 46.0036C52.9755 46.2196 52.8742 46.4202 52.7284 46.5866C52.5827 46.7531 52.3973 46.8799 52.1893 46.9555L27.8917 55.7821C27.6579 55.8714 27.4033 55.8912 27.1585 55.839C26.9138 55.7868 26.6894 55.6648 26.5124 55.4879C26.3355 55.3109 26.2135 55.0865 26.1613 54.8418C26.1091 54.597 26.1289 54.3424 26.2182 54.1086V54.1086Z" stroke="#F8D57E" stroke-width="2.375" stroke-linecap="round" stroke-linejoin="round"/>
<path d="M47.5625 31.812C47.5625 31.812 47.5625 27.8745 51.5 27.8745C55.4375 27.8745 55.4375 23.937 55.4375 23.937" stroke="#F8D57E" stroke-width="2.375" stroke-linecap="round" stroke-linejoin="round"/>
<path d="M36.8002 52.5497L29.4502 45.1997" stroke="#F8D57E" stroke-width="2.375" stroke-linecap="round" stroke-linejoin="round"/>
<path d="M43.625 22.6255V26.563" stroke="#F8D57E" stroke-width="2.375" stroke-linecap="round" stroke-linejoin="round"/>
<path d="M55.4375 38.375L58.0625 41" stroke="#F8D57E" stroke-width="2.375" stroke-linecap="round" stroke-linejoin="round"/>
<path d="M55.4375 33.125L59.375 31.8125" stroke="#F8D57E" stroke-width="2.375" stroke-linecap="round" stroke-linejoin="round"/>
<path d="M32.5996 36.5381L45.4621 49.4006" stroke="#F8D57E" stroke-width="2.375" stroke-linecap="round" stroke-linejoin="round"/>
</svg>
