<svg width="160" height="40" viewBox="0 0 160 40" fill="none" xmlns="http://www.w3.org/2000/svg">
<path d="M57.2828 32.0521C56.0026 32.0521 54.8372 31.8396 53.7868 31.4147C52.7528 30.9898 51.8829 30.3851 51.1772 29.6006C50.4714 28.8161 49.9872 27.9009 49.7246 26.8549L52.9498 25.6047C53.278 26.5689 53.8279 27.3371 54.5993 27.9091C55.3707 28.4647 56.2406 28.7426 57.2089 28.7426C57.767 28.7426 58.2511 28.6527 58.6615 28.4729C59.0882 28.2768 59.4165 28.0153 59.6462 27.6884C59.8924 27.3616 60.0155 26.9939 60.0155 26.5853C60.0155 26.193 59.8924 25.858 59.6462 25.5802C59.4001 25.3023 58.9979 25.0735 58.4399 24.8938L55.1901 23.7906C53.8443 23.333 52.8431 22.7038 52.1866 21.903C51.5464 21.0858 51.2264 20.0889 51.2264 18.9121C51.2264 17.8335 51.5136 16.8692 52.0881 16.0194C52.6789 15.1532 53.4668 14.4668 54.4515 13.9602C55.4527 13.4535 56.577 13.2002 57.8244 13.2002C58.9897 13.2002 60.0402 13.3963 60.9757 13.7886C61.9276 14.1644 62.7237 14.7038 63.3638 15.4065C64.0039 16.1093 64.447 16.9428 64.6932 17.907L61.4927 19.1573C61.2301 18.3238 60.7623 17.6782 60.0894 17.2206C59.4329 16.7467 58.6451 16.5097 57.7259 16.5097C57.1843 16.5097 56.7083 16.5996 56.298 16.7794C55.9041 16.9428 55.5922 17.1798 55.3625 17.4903C55.1491 17.8008 55.0424 18.1685 55.0424 18.5935C55.0424 19.0347 55.1737 19.4024 55.4363 19.6966C55.6989 19.9908 56.1093 20.2359 56.6673 20.4321L59.8432 21.5352C61.1891 21.9928 62.1903 22.6139 62.8468 23.3984C63.5197 24.1828 63.8562 25.1552 63.8562 26.3156C63.8562 27.3943 63.5525 28.3667 62.9453 29.2329C62.3544 30.0991 61.5584 30.7855 60.5572 31.2921C59.5724 31.7988 58.4809 32.0521 57.2828 32.0521Z" fill="white"/>
<path d="M64.8998 31.7579L67.5095 13.2002L71.227 13.2002L69.5529 25.0899L67.8541 24.6486L74.6737 18.3728L79.573 18.3728L73.9351 23.7661L77.6773 31.7579L73.7136 31.7579L70.6115 24.9673L72.6057 24.428L67.8541 28.8897L69.3067 26.7569L68.6173 31.7579L64.8998 31.7579Z" fill="white"/>
<path d="M78.6359 31.7579L80.507 18.3728L84.2245 18.3728L82.3535 31.7579L78.6359 31.7579ZM80.6793 17.1716L81.1963 13.4944L84.9139 13.4944L84.3969 17.1716L80.6793 17.1716Z" fill="white"/>
<path d="M84.3659 31.7579L86.9756 13.2002L90.6931 13.2002L88.0834 31.7579L84.3659 31.7579Z" fill="white"/>
<path d="M90.0959 31.7579L92.7055 13.2002L96.4231 13.2002L93.8134 31.7579L90.0959 31.7579Z" fill="white"/>
<path d="M103.532 32.0521C102.252 32.0521 101.086 31.8396 100.036 31.4147C99.0018 30.9898 98.1319 30.3851 97.4261 29.6006C96.7204 28.8161 96.2362 27.9009 95.9736 26.8549L99.1987 25.6047C99.527 26.5689 100.077 27.3371 100.848 27.9091C101.62 28.4647 102.49 28.7426 103.458 28.7426C104.016 28.7426 104.5 28.6527 104.91 28.4729C105.337 28.2768 105.665 28.0153 105.895 27.6884C106.141 27.3616 106.265 26.9939 106.265 26.5853C106.265 26.193 106.141 25.858 105.895 25.5802C105.649 25.3023 105.247 25.0735 104.689 24.8938L101.439 23.7906C100.093 23.333 99.092 22.7038 98.4355 21.903C97.7954 21.0858 97.4754 20.0889 97.4754 18.9121C97.4754 17.8335 97.7626 16.8692 98.3371 16.0194C98.9279 15.1532 99.7157 14.4668 100.701 13.9602C101.702 13.4535 102.826 13.2002 104.073 13.2002C105.239 13.2002 106.289 13.3963 107.225 13.7886C108.177 14.1644 108.973 14.7038 109.613 15.4065C110.253 16.1093 110.696 16.9428 110.942 17.907L107.742 19.1573C107.479 18.3238 107.011 17.6782 106.338 17.2206C105.682 16.7467 104.894 16.5097 103.975 16.5097C103.433 16.5097 102.957 16.5996 102.547 16.7794C102.153 16.9428 101.841 17.1798 101.611 17.4903C101.398 17.8008 101.291 18.1685 101.291 18.5935C101.291 19.0347 101.423 19.4024 101.685 19.6966C101.948 19.9908 102.358 20.2359 102.916 20.4321L106.092 21.5352C107.438 21.9928 108.439 22.6139 109.096 23.3984C109.769 24.1828 110.105 25.1552 110.105 26.3156C110.105 27.3943 109.802 28.3667 109.194 29.2329C108.603 30.0991 107.807 30.7855 106.806 31.2921C105.821 31.7988 104.73 32.0521 103.532 32.0521Z" fill="white"/>
<path d="M112.601 37.2002C112.158 37.2002 111.756 37.1593 111.395 37.0776C111.034 36.9959 110.722 36.8815 110.459 36.7344L110.681 33.7926C110.911 33.858 111.173 33.907 111.469 33.9397C111.764 33.9887 112.019 34.0133 112.232 34.0133C112.692 34.0133 113.077 33.9234 113.389 33.7436C113.717 33.5638 113.996 33.335 114.226 33.0572C114.456 32.7794 114.661 32.5015 114.842 32.2237L116.073 30.238L115.728 33.3023L111.937 18.3728L115.728 18.3728L118.141 28.9877L116.639 28.9877L122.055 18.3728L126.216 18.3728L118.362 33.1062C117.87 34.0378 117.328 34.8059 116.737 35.4106C116.147 36.0153 115.506 36.4647 114.817 36.7589C114.128 37.0531 113.389 37.2002 112.601 37.2002Z" fill="white"/>
<path d="M125.27 31.7579L127.141 18.3728L130.587 18.3728L130.243 21.0204L130.095 20.334C130.522 19.5332 131.088 18.9612 131.794 18.618C132.516 18.2584 133.328 18.0786 134.231 18.0786C135.265 18.0786 136.143 18.3238 136.865 18.8141C137.588 19.288 138.113 19.9336 138.441 20.7508C138.786 21.5679 138.884 22.4831 138.736 23.4964L137.579 31.7579L133.886 31.7579L134.97 23.9377C135.085 23.1695 134.945 22.5567 134.551 22.0991C134.157 21.6251 133.599 21.3881 132.877 21.3881C132.401 21.3881 131.958 21.4944 131.548 21.7068C131.154 21.9193 130.825 22.2135 130.563 22.5894C130.3 22.9653 130.128 23.4147 130.046 23.9377L128.962 31.7579L125.27 31.7579Z" fill="white"/>
<path d="M146.507 32.0521C145.21 32.0521 144.045 31.7661 143.011 31.1941C141.994 30.622 141.189 29.8376 140.598 28.8406C140.024 27.8437 139.737 26.716 139.737 25.4576C139.737 24.428 139.934 23.4637 140.328 22.5648C140.722 21.666 141.263 20.8815 141.953 20.2114C142.642 19.5414 143.438 19.0184 144.341 18.6425C145.26 18.2666 146.245 18.0786 147.295 18.0786C148.313 18.0786 149.24 18.2584 150.077 18.618C150.914 18.9612 151.62 19.4433 152.194 20.0643C152.769 20.6854 153.163 21.4127 153.376 22.2462L150.102 23.5209C149.921 22.8509 149.576 22.3279 149.068 21.952C148.559 21.5761 147.951 21.3881 147.246 21.3881C146.507 21.3881 145.859 21.5761 145.301 21.952C144.759 22.3279 144.332 22.8263 144.021 23.4474C143.725 24.0684 143.577 24.7385 143.577 25.4576C143.577 26.1113 143.7 26.6833 143.947 27.1736C144.193 27.6639 144.538 28.048 144.981 28.3258C145.44 28.6037 145.965 28.7426 146.556 28.7426C147.328 28.7426 148.001 28.5383 148.575 28.1297C149.15 27.7211 149.576 27.1818 149.855 26.5117L152.982 28.0071C152.67 28.7916 152.194 29.4944 151.554 30.1154C150.93 30.7201 150.184 31.1941 149.314 31.5373C148.444 31.8805 147.508 32.0521 146.507 32.0521Z" fill="white"/>
<path d="M155.766 31.7579L156.307 28.0807L160 28.0807L159.459 31.7579L155.766 31.7579Z" fill="white"/>
<g clip-path="url(#clip0_968_3967)">
<path d="M28.6219 34.0143L28.4972 34.082C22.6999 37.3798 16.8241 39.3484 12.0156 39.8641C6.77017 40.4266 2.63757 39.2606 0.86335 36.2326L0.86335 36.2261C-0.910875 33.1988 0.130029 29.0887 3.2468 24.8934C6.10616 21.0461 10.7721 17.0173 16.566 13.7214L16.8683 13.5913L17.3753 15.0975L18.1779 16.4632C12.7727 19.5379 8.45331 23.2513 5.84082 26.767C3.48904 29.9322 2.57091 32.8086 3.64284 34.6458C4.72202 36.4817 7.71207 37.1379 11.6744 36.7132C16.071 36.2417 21.492 34.4143 26.8926 31.3428L27.0094 31.2725L28.6219 34.0143Z" fill="#3A86FF"/>
<path d="M28.6219 34.0144L28.4972 34.082C24.1369 36.5624 19.1719 37.0671 14.671 35.8789C10.1681 34.6901 6.12267 31.8039 3.60391 27.5046C1.08712 23.2072 0.574261 18.3167 1.77952 13.8821C2.9861 9.44421 5.91278 5.45768 10.2711 2.97796L10.3774 2.91553L11.9767 5.66968L11.8585 5.73407C8.28303 7.77676 5.88175 11.0531 4.88969 14.7008C3.89433 18.3609 4.31479 22.393 6.38603 25.9288C8.45596 29.4614 11.7886 31.8338 15.5014 32.8146C19.2155 33.7953 23.3059 33.3816 26.8932 31.3428L27.0101 31.2726L28.6219 34.0144Z" fill="#8338EC"/>
<path d="M11.4785 5.98647L11.6033 5.91884C17.4005 2.621 23.2757 0.651795 28.0855 0.136732C33.3316 -0.425805 37.4635 0.74024 39.2371 3.76819L39.2371 3.77469C41.0106 6.80199 39.9704 10.9114 36.853 15.1067C33.9936 18.9541 29.3277 22.9829 23.5337 26.2788L23.2314 26.4089L22.7252 24.9027L21.9219 23.5363C27.3271 20.4616 31.6465 16.7488 34.259 13.2331C36.6107 10.068 37.5289 7.19154 36.4569 5.35435C35.3771 3.51846 32.3877 2.86227 28.4254 3.28694C24.0288 3.75843 18.6078 5.58587 13.2072 8.65738L13.0904 8.72762L11.4785 5.98647Z" fill="#FB5607"/>
<path d="M11.4785 5.98654L11.6033 5.91891C15.9636 3.43854 20.9285 2.93388 25.4294 4.12204C29.9323 5.31085 33.9778 8.19702 36.4972 12.4964C39.014 16.7938 39.5268 21.6843 38.3216 26.1189C37.1143 30.5574 34.1877 34.5439 29.8293 37.0237L29.7231 37.0861L28.1238 34.3326L28.2419 34.2682C31.8174 32.2255 34.2187 28.9491 35.2108 25.3014C36.2061 21.642 35.7857 17.6093 33.7144 14.0734C31.6445 10.5408 28.3119 8.16841 24.5991 7.18771C20.8856 6.20701 16.7946 6.62062 13.2072 8.65941L13.0904 8.72965L11.4785 5.98654Z" fill="#FFBE0B"/>
</g>
<defs>
<clipPath id="clip0_968_3967">
<rect width="40.1003" height="40" fill="white"/>
</clipPath>
</defs>
</svg>
