<svg width="234" height="59" viewBox="0 0 234 59" fill="none" xmlns="http://www.w3.org/2000/svg">
<path d="M83.7757 46.9934C81.9034 46.9934 80.1991 46.6819 78.6628 46.0589C77.1506 45.4359 75.8784 44.5493 74.8462 43.3991C73.814 42.249 73.1059 40.9071 72.7219 39.3735L77.4386 37.5405C77.9187 38.9542 78.7229 40.0804 79.851 40.9191C80.9792 41.7338 82.2514 42.1411 83.6677 42.1411C84.4838 42.1411 85.1919 42.0093 85.792 41.7458C86.4161 41.4582 86.8962 41.0748 87.2323 40.5956C87.5923 40.1164 87.7723 39.5772 87.7723 38.9782C87.7723 38.4031 87.5923 37.9119 87.2323 37.5045C86.8722 37.0972 86.2841 36.7617 85.468 36.4981L80.7152 34.8807C78.7469 34.2098 77.2826 33.2872 76.3225 32.1131C75.3863 30.915 74.9182 29.4533 74.9182 27.7281C74.9182 26.1466 75.3383 24.7329 76.1784 23.4868C77.0426 22.2169 78.1948 21.2105 79.635 20.4677C81.0992 19.7248 82.7435 19.3534 84.5678 19.3534C86.2721 19.3534 87.8083 19.641 89.1766 20.2161C90.5688 20.7672 91.733 21.5579 92.6692 22.5883C93.6053 23.6186 94.2534 24.8407 94.6135 26.2544L89.9327 28.0875C89.5486 26.8655 88.8645 25.919 87.8804 25.248C86.9202 24.5531 85.768 24.2057 84.4238 24.2057C83.6317 24.2057 82.9355 24.3375 82.3354 24.6011C81.7594 24.8407 81.3033 25.1881 80.9672 25.6434C80.6552 26.0987 80.4991 26.6378 80.4991 27.2608C80.4991 27.9078 80.6912 28.4469 81.0752 28.8783C81.4593 29.3096 82.0594 29.669 82.8755 29.9565L87.5203 31.574C89.4886 32.2449 90.9529 33.1554 91.913 34.3056C92.8972 35.4558 93.3893 36.8815 93.3893 38.5828C93.3893 40.1643 92.9452 41.59 92.057 42.86C91.1929 44.13 90.0287 45.1364 88.5645 45.8792C87.1242 46.622 85.528 46.9934 83.7757 46.9934Z" fill="white"/>
<path d="M94.9156 46.5621L98.7322 19.3534H104.169L101.721 36.7857L99.2363 36.1387L109.21 26.9373H116.375L108.13 34.8448L113.603 46.5621H107.806L103.269 36.606L106.185 35.8152L99.2363 42.3568L101.361 39.2298L100.352 46.5621H94.9156Z" fill="white"/>
<path d="M115.005 46.5621L117.741 26.9373H123.178L120.442 46.5621H115.005ZM117.993 25.1762L118.749 19.7847H124.186L123.43 25.1762H117.993Z" fill="white"/>
<path d="M123.385 46.5621L127.201 19.3534H132.638L128.822 46.5621H123.385Z" fill="white"/>
<path d="M131.765 46.5621L135.581 19.3534H141.018L137.202 46.5621H131.765Z" fill="white"/>
<path d="M151.415 46.9934C149.542 46.9934 147.838 46.6819 146.302 46.0589C144.79 45.4359 143.518 44.5493 142.485 43.3991C141.453 42.249 140.745 40.9071 140.361 39.3735L145.078 37.5405C145.558 38.9542 146.362 40.0804 147.49 40.9191C148.618 41.7338 149.891 42.1411 151.307 42.1411C152.123 42.1411 152.831 42.0093 153.431 41.7458C154.055 41.4582 154.535 41.0748 154.871 40.5956C155.231 40.1164 155.411 39.5772 155.411 38.9782C155.411 38.4031 155.231 37.9119 154.871 37.5045C154.511 37.0972 153.923 36.7617 153.107 36.4981L148.354 34.8807C146.386 34.2098 144.922 33.2872 143.962 32.1131C143.025 30.915 142.557 29.4533 142.557 27.7281C142.557 26.1466 142.977 24.7329 143.818 23.4868C144.682 22.2169 145.834 21.2105 147.274 20.4677C148.738 19.7248 150.383 19.3534 152.207 19.3534C153.911 19.3534 155.447 19.641 156.816 20.2161C158.208 20.7672 159.372 21.5579 160.308 22.5883C161.244 23.6186 161.893 24.8407 162.253 26.2544L157.572 28.0875C157.188 26.8655 156.504 25.919 155.519 25.248C154.559 24.5531 153.407 24.2057 152.063 24.2057C151.271 24.2057 150.575 24.3375 149.975 24.6011C149.398 24.8407 148.942 25.1881 148.606 25.6434C148.294 26.0987 148.138 26.6378 148.138 27.2608C148.138 27.9078 148.33 28.4469 148.714 28.8783C149.098 29.3096 149.699 29.669 150.515 29.9565L155.159 31.574C157.128 32.2449 158.592 33.1554 159.552 34.3056C160.536 35.4558 161.028 36.8815 161.028 38.5828C161.028 40.1643 160.584 41.59 159.696 42.86C158.832 44.13 157.668 45.1364 156.204 45.8792C154.763 46.622 153.167 46.9934 151.415 46.9934Z" fill="white"/>
<path d="M164.679 54.5414C164.031 54.5414 163.443 54.4815 162.915 54.3617C162.387 54.2419 161.931 54.0741 161.547 53.8585L161.871 49.5453C162.207 49.6412 162.591 49.7131 163.023 49.761C163.455 49.8329 163.827 49.8688 164.139 49.8688C164.811 49.8688 165.375 49.737 165.831 49.4735C166.311 49.2099 166.719 48.8744 167.055 48.4671C167.391 48.0597 167.692 47.6524 167.956 47.245L169.756 44.3336L169.252 48.8265L163.707 26.9373H169.252L172.78 42.5006H170.584L178.505 26.9373H184.59L173.104 48.5389C172.384 49.9048 171.592 51.031 170.728 51.9176C169.864 52.8042 168.928 53.4631 167.92 53.8944C166.911 54.3257 165.831 54.5414 164.679 54.5414Z" fill="white"/>
<path d="M183.206 46.5621L185.943 26.9373H190.984L190.48 30.8192L190.264 29.8128C190.888 28.6386 191.716 27.8 192.748 27.2968C193.804 26.7696 194.992 26.506 196.313 26.506C197.825 26.506 199.109 26.8655 200.165 27.5843C201.221 28.2792 201.989 29.2257 202.47 30.4238C202.974 31.6219 203.118 32.9637 202.902 34.4494L201.209 46.5621H195.808L197.393 35.0964C197.561 33.9701 197.357 33.0716 196.781 32.4006C196.204 31.7058 195.388 31.3583 194.332 31.3583C193.636 31.3583 192.988 31.5141 192.388 31.8256C191.812 32.1371 191.332 32.5684 190.948 33.1195C190.564 33.6706 190.312 34.3296 190.192 35.0964L188.607 46.5621H183.206Z" fill="white"/>
<path d="M214.266 46.9934C212.37 46.9934 210.666 46.5741 209.153 45.7354C207.665 44.8967 206.489 43.7466 205.625 42.2849C204.785 40.8232 204.365 39.1699 204.365 37.3248C204.365 35.8152 204.653 34.4015 205.229 33.0836C205.805 31.7657 206.597 30.6155 207.605 29.6331C208.613 28.6506 209.778 27.8838 211.098 27.3327C212.442 26.7816 213.882 26.506 215.418 26.506C216.907 26.506 218.263 26.7696 219.487 27.2968C220.711 27.8 221.743 28.5068 222.584 29.4174C223.424 30.3279 224 31.3942 224.312 32.6163L219.523 34.4853C219.259 33.5029 218.755 32.7361 218.011 32.185C217.267 31.6339 216.379 31.3583 215.346 31.3583C214.266 31.3583 213.318 31.6339 212.502 32.185C211.71 32.7361 211.086 33.4669 210.63 34.3775C210.198 35.288 209.982 36.2705 209.982 37.3248C209.982 38.2833 210.162 39.1219 210.522 39.8408C210.882 40.5597 211.386 41.1228 212.034 41.5301C212.706 41.9375 213.474 42.1411 214.338 42.1411C215.466 42.1411 216.451 41.8416 217.291 41.2426C218.131 40.6435 218.755 39.8528 219.163 38.8703L223.736 41.0629C223.28 42.213 222.584 43.2434 221.647 44.1539C220.735 45.0405 219.643 45.7354 218.371 46.2386C217.099 46.7418 215.73 46.9934 214.266 46.9934Z" fill="white"/>
<path d="M227.807 46.5621L228.599 41.1707H234L233.208 46.5621H227.807Z" fill="white"/>
<g clip-path="url(#clip0_451_941)">
<path d="M41.8595 49.8706L41.6771 49.9698C33.1986 54.8049 24.6053 57.6912 17.5728 58.4473C9.90137 59.272 3.85745 57.5624 1.26265 53.123V53.1134C-1.33215 48.6749 0.190168 42.6488 4.74845 36.4978C8.93025 30.8569 15.7542 24.95 24.2278 20.1177L24.6699 19.927L25.4113 22.1353L26.5852 24.1377C18.6801 28.6458 12.363 34.0902 8.54219 39.2448C5.10273 43.8855 3.75995 48.1028 5.32765 50.7964C6.90596 53.4881 11.2789 54.4502 17.0738 53.8276C23.5038 53.1363 31.4321 50.457 39.3304 45.9536L39.5013 45.8507L41.8595 49.8706Z" fill="#3A86FF"/>
<path d="M41.8596 49.8706L41.6771 49.9698C35.3001 53.6064 28.039 54.3463 21.4564 52.6043C14.8709 50.8613 8.95441 46.6297 5.27071 40.3261C1.58992 34.0254 0.839857 26.8551 2.60255 20.3533C4.36717 13.8466 8.64743 8.00169 15.0215 4.36601L15.1769 4.27448L17.5159 8.31253L17.3431 8.40692C12.1139 11.4018 8.60206 16.2056 7.15117 21.5537C5.69546 26.92 6.31037 32.8316 9.33957 38.0158C12.3668 43.1952 17.2408 46.6735 22.6708 48.1114C28.1027 49.5493 34.0848 48.9428 39.3314 45.9536L39.5022 45.8507L41.8596 49.8706Z" fill="#8338EC"/>
<path d="M16.7871 8.77688L16.9696 8.67772C25.448 3.84255 34.0404 0.955365 41.0748 0.200197C48.7472 -0.624576 54.7902 1.08504 57.384 5.52451V5.53405C59.9778 9.97256 58.4565 15.9977 53.8972 22.1487C49.7154 27.7896 42.8915 33.6965 34.4179 38.5288L33.9757 38.7195L33.2353 36.5112L32.0605 34.5079C39.9656 29.9998 46.2827 24.5563 50.1035 19.4017C53.543 14.761 54.8857 10.5437 53.318 7.85009C51.7388 5.15837 47.3668 4.19629 41.5719 4.81893C35.1419 5.51021 27.2136 8.18953 19.3153 12.6929L19.1444 12.7959L16.7871 8.77688Z" fill="#FB5607"/>
<path d="M16.7871 8.77686L16.9696 8.67769C23.3465 5.04106 30.6077 4.30115 37.1903 6.04319C43.7758 7.78618 49.6923 12.0178 53.3769 18.3213C57.0577 24.622 57.8078 31.7923 56.0451 38.2942C54.2795 44.8018 49.9992 50.6467 43.6252 54.2824L43.4698 54.3739L41.1308 50.3368L41.3036 50.2424C46.5327 47.2475 50.0446 42.4438 51.4955 37.0957C52.9512 31.7303 52.3363 25.8177 49.3071 20.6336C46.2798 15.4542 41.4059 11.9758 35.9759 10.538C30.545 9.10009 24.5619 9.70651 19.3153 12.6957L19.1444 12.7987L16.7871 8.77686Z" fill="#FFBE0B"/>
</g>
<defs>
<clipPath id="clip0_451_941">
<rect width="58.6466" height="58.6466" fill="white"/>
</clipPath>
</defs>
</svg>
