<svg width="104" height="104" viewBox="0 0 104 104" fill="none" xmlns="http://www.w3.org/2000/svg">
<g id="Logo" clip-path="url(#clip0_17_850)">
<path id="Vector" d="M73.7014 87.8065L73.3802 87.981C58.4523 96.4943 43.3221 101.576 30.9402 102.907C17.4332 104.359 6.79175 101.349 2.22312 93.5329V93.5161C-2.3455 85.7012 0.334826 75.0912 8.36052 64.2612C15.7234 54.3294 27.7381 43.9293 42.6575 35.4211L43.436 35.0853L44.7413 38.9734L46.808 42.4989C32.8897 50.4363 21.7673 60.0223 15.0401 69.0979C8.98428 77.2686 6.62009 84.694 9.3803 89.4366C12.1592 94.1758 19.8586 95.8697 30.0615 94.7735C41.3828 93.5564 55.3419 88.8389 69.2484 80.9099L69.5492 80.7286L73.7014 87.8065Z" fill="#3A86FF"/>
<path id="Vector_2" d="M73.7014 87.8064L73.3802 87.981C62.1524 94.384 49.3677 95.6867 37.7779 92.6196C26.1829 89.5507 15.7658 82.1002 9.28002 71.0016C2.7993 59.9081 1.47868 47.2835 4.58222 35.8357C7.68916 24.3796 15.2254 14.0885 26.4481 7.68726L26.7217 7.52609L30.8399 14.6358L30.5357 14.802C21.3288 20.0751 15.1455 28.533 12.5909 37.9494C10.0279 47.3977 11.1105 57.8062 16.444 66.9339C21.7741 76.0531 30.3555 82.1774 39.916 84.7091C49.4799 87.2407 60.0125 86.173 69.2501 80.9099L69.5509 80.7286L73.7014 87.8064Z" fill="#8338EC"/>
<path id="Vector_3" d="M29.5567 15.4534L29.8779 15.2788C44.8059 6.7656 59.9343 1.68218 72.3196 0.352571C85.8283 -1.09959 96.4681 1.9105 101.035 9.727V9.74379C105.602 17.5586 102.923 28.167 94.8959 38.9969C87.5331 48.9287 75.5183 59.3289 60.5989 67.8371L59.8205 68.1728L58.5168 64.2847L56.4484 60.7576C70.3667 52.8202 81.4892 43.2359 88.2163 34.1603C94.2721 25.9896 96.6363 18.5642 93.8761 13.8216C91.0955 9.08234 83.3978 7.38843 73.1949 8.48469C61.8736 9.70182 47.9145 14.4193 34.0081 22.3482L33.7072 22.5296L29.5567 15.4534Z" fill="#FB5607"/>
<path id="Vector_4" d="M29.5567 15.4534L29.8779 15.2788C41.1057 8.87586 53.8904 7.57311 65.4803 10.6403C77.0752 13.7091 87.4923 21.1597 93.9798 32.2582C100.461 43.3518 101.781 55.9764 98.6776 67.4241C95.569 78.8819 88.0328 89.173 76.81 95.5743L76.5364 95.7355L72.4182 88.6274L72.7224 88.4612C81.9294 83.1881 88.1126 74.7303 90.6672 65.3139C93.2303 55.8672 92.1476 45.457 86.8141 36.3293C81.4841 27.2101 72.9026 21.0858 63.3421 18.5542C53.7799 16.0225 43.2456 17.0902 34.0081 22.3533L33.7072 22.5346L29.5567 15.4534Z" fill="#FFBE0B"/>
</g>
<defs>
<clipPath id="clip0_17_850">
<rect width="103.258" height="103.258" fill="white"/>
</clipPath>
</defs>
</svg>
