<svg width="82" height="82" viewBox="0 0 82 82" fill="none" xmlns="http://www.w3.org/2000/svg">
<path d="M0 40C0 21.1438 0 11.7157 5.85786 5.85786C11.7157 0 21.1438 0 40 0H42C60.8562 0 70.2843 0 76.1421 5.85786C82 11.7157 82 21.1438 82 40V42C82 60.8562 82 70.2843 76.1421 76.1421C70.2843 82 60.8562 82 42 82H40C21.1438 82 11.7157 82 5.85786 76.1421C0 70.2843 0 60.8562 0 42V40Z" fill="#009379" fill-opacity="0.2"/>
<path opacity="0.2" d="M54.125 26.5625H48.875C48.1501 26.5625 47.5625 27.1501 47.5625 27.875V33.125C47.5625 33.8499 48.1501 34.4375 48.875 34.4375H54.125C54.8499 34.4375 55.4375 33.8499 55.4375 33.125V27.875C55.4375 27.1501 54.8499 26.5625 54.125 26.5625Z" fill="#3A86FF"/>
<path opacity="0.2" d="M27.875 26.6367H33.125C33.8089 26.6367 34.3633 27.1911 34.3633 27.875V33.125C34.3633 33.8089 33.8089 34.3633 33.125 34.3633H27.875C27.1911 34.3633 26.6367 33.8089 26.6367 33.125V27.875C26.6367 27.1911 27.1911 26.6367 27.875 26.6367Z" fill="#3A86FF" stroke="#3A86FF" stroke-width="0.148438"/>
<path opacity="0.2" d="M48.875 47.6372H54.125C54.8089 47.6372 55.3633 48.1916 55.3633 48.8755V54.1255C55.3633 54.8094 54.8089 55.3638 54.125 55.3638H48.875C48.1911 55.3638 47.6367 54.8094 47.6367 54.1255V48.8755C47.6367 48.1916 48.1911 47.6372 48.875 47.6372Z" fill="#3A86FF" stroke="#3A86FF" stroke-width="0.148438"/>
<path opacity="0.2" d="M27.875 47.6372H33.125C33.8089 47.6372 34.3633 48.1916 34.3633 48.8755V54.1255C34.3633 54.8094 33.8089 55.3638 33.125 55.3638H27.875C27.1911 55.3638 26.6367 54.8094 26.6367 54.1255V48.8755C26.6367 48.1916 27.1911 47.6372 27.875 47.6372Z" fill="#3A86FF" stroke="#3A86FF" stroke-width="0.148438"/>
<path d="M54.125 26.5625H48.875C48.1501 26.5625 47.5625 27.1501 47.5625 27.875V33.125C47.5625 33.8499 48.1501 34.4375 48.875 34.4375H54.125C54.8499 34.4375 55.4375 33.8499 55.4375 33.125V27.875C55.4375 27.1501 54.8499 26.5625 54.125 26.5625Z" stroke="#3A86FF" stroke-width="2.375" stroke-linecap="round" stroke-linejoin="round"/>
<path d="M33.125 26.5625H27.875C27.1501 26.5625 26.5625 27.1501 26.5625 27.875V33.125C26.5625 33.8499 27.1501 34.4375 27.875 34.4375H33.125C33.8499 34.4375 34.4375 33.8499 34.4375 33.125V27.875C34.4375 27.1501 33.8499 26.5625 33.125 26.5625Z" stroke="#3A86FF" stroke-width="2.375" stroke-linecap="round" stroke-linejoin="round"/>
<path d="M54.125 47.563H48.875C48.1501 47.563 47.5625 48.1506 47.5625 48.8755V54.1255C47.5625 54.8504 48.1501 55.438 48.875 55.438H54.125C54.8499 55.438 55.4375 54.8504 55.4375 54.1255V48.8755C55.4375 48.1506 54.8499 47.563 54.125 47.563Z" stroke="#3A86FF" stroke-width="2.375" stroke-linecap="round" stroke-linejoin="round"/>
<path d="M33.125 47.563H27.875C27.1501 47.563 26.5625 48.1506 26.5625 48.8755V54.1255C26.5625 54.8504 27.1501 55.438 27.875 55.438H33.125C33.8499 55.438 34.4375 54.8504 34.4375 54.1255V48.8755C34.4375 48.1506 33.8499 47.563 33.125 47.563Z" stroke="#3A86FF" stroke-width="2.375" stroke-linecap="round" stroke-linejoin="round"/>
<path d="M30.5 47.563V34.438" stroke="#3A86FF" stroke-width="2.375" stroke-linecap="round" stroke-linejoin="round"/>
<path d="M47.5625 51.5H34.4375" stroke="#3A86FF" stroke-width="2.375" stroke-linecap="round" stroke-linejoin="round"/>
<path d="M51.5 34.438V47.563" stroke="#3A86FF" stroke-width="2.375" stroke-linecap="round" stroke-linejoin="round"/>
<path d="M34.4375 30.4995H47.5625" stroke="#3A86FF" stroke-width="2.375" stroke-linecap="round" stroke-linejoin="round"/>
</svg>
