<svg width="176" height="32" viewBox="0 0 176 32" fill="none" xmlns="http://www.w3.org/2000/svg">
<g clip-path="url(#clip0_921_833)">
<path fill-rule="evenodd" clip-rule="evenodd" d="M0 16C0 7.16344 7.16344 0 16 0C24.8366 0 32 7.16344 32 16C32 24.8366 24.8366 32 16 32C7.16344 32 0 24.8366 0 16Z" fill="#F9F9F9"/>
<path fill-rule="evenodd" clip-rule="evenodd" d="M22.6679 10.4995C23.4022 10.701 23.9805 11.2948 24.1768 12.0488C24.5335 13.4153 24.5335 16.2666 24.5335 16.2666C24.5335 16.2666 24.5335 19.1178 24.1768 20.4845C23.9805 21.2385 23.4022 21.8322 22.6679 22.0338C21.3371 22.4 16.0001 22.4 16.0001 22.4C16.0001 22.4 10.6632 22.4 9.3323 22.0338C8.59795 21.8322 8.01962 21.2385 7.82335 20.4845C7.4668 19.1178 7.4668 16.2666 7.4668 16.2666C7.4668 16.2666 7.4668 13.4153 7.82335 12.0488C8.01962 11.2948 8.59795 10.701 9.3323 10.4995C10.6632 10.1333 16.0001 10.1333 16.0001 10.1333C16.0001 10.1333 21.3371 10.1333 22.6679 10.4995ZM14.4001 13.8666V19.1999L18.6668 16.5333L14.4001 13.8666Z" fill="#131313"/>
<path fill-rule="evenodd" clip-rule="evenodd" d="M48 16C48 7.16344 55.1634 0 64 0C72.8366 0 80 7.16344 80 16C80 24.8366 72.8366 32 64 32C55.1634 32 48 24.8366 48 16Z" fill="#F9F9F9"/>
<path fill-rule="evenodd" clip-rule="evenodd" d="M64.0009 7.46655C61.6834 7.46655 61.3925 7.47669 60.4823 7.51811C59.5739 7.55971 58.9538 7.70353 58.4112 7.91456C57.8499 8.13252 57.3738 8.42407 56.8995 8.89857C56.4249 9.37288 56.1333 9.84898 55.9146 10.41C55.7031 10.9528 55.5591 11.5731 55.5182 12.4812C55.4775 13.3914 55.4668 13.6824 55.4668 16C55.4668 18.3175 55.4771 18.6075 55.5184 19.5177C55.5601 20.4262 55.704 21.0462 55.9148 21.5888C56.1329 22.1501 56.4245 22.6262 56.899 23.1005C57.3731 23.5752 57.8492 23.8674 58.4101 24.0854C58.9531 24.2964 59.5733 24.4402 60.4816 24.4818C61.3918 24.5233 61.6825 24.5334 63.9999 24.5334C66.3176 24.5334 66.6075 24.5233 67.5178 24.4818C68.4262 24.4402 69.047 24.2964 69.59 24.0854C70.151 23.8674 70.6264 23.5752 71.1006 23.1005C71.5752 22.6262 71.8668 22.1501 72.0855 21.589C72.2952 21.0462 72.4392 20.426 72.4819 19.5179C72.5228 18.6076 72.5335 18.3175 72.5335 16C72.5335 13.6824 72.5228 13.3916 72.4819 12.4814C72.4392 11.5729 72.2952 10.9528 72.0855 10.4102C71.8668 9.84898 71.5752 9.37288 71.1006 8.89857C70.6259 8.4239 70.1512 8.13234 69.5894 7.91456C69.0454 7.70353 68.425 7.55971 67.5165 7.51811C66.6063 7.47669 66.3165 7.46655 63.9983 7.46655H64.0009ZM63.2354 9.00432C63.4626 9.00397 63.7161 9.00432 64.0009 9.00432C66.2793 9.00432 66.5494 9.0125 67.4491 9.05339C68.2811 9.09143 68.7327 9.23046 69.0335 9.34726C69.4317 9.50193 69.7156 9.68682 70.0141 9.98549C70.3128 10.2842 70.4977 10.5686 70.6527 10.9668C70.7695 11.2673 70.9087 11.7188 70.9466 12.5508C70.9875 13.4504 70.9963 13.7206 70.9963 15.998C70.9963 18.2754 70.9875 18.5456 70.9466 19.4451C70.9085 20.2772 70.7695 20.7287 70.6527 21.0292C70.498 21.4274 70.3128 21.7109 70.0141 22.0094C69.7154 22.3081 69.4319 22.493 69.0335 22.6477C68.733 22.765 68.2811 22.9037 67.4491 22.9417C66.5495 22.9826 66.2793 22.9915 64.0009 22.9915C61.7223 22.9915 61.4522 22.9826 60.5527 22.9417C59.7207 22.9033 59.2691 22.7643 58.9681 22.6475C58.5699 22.4928 58.2855 22.3079 57.9868 22.0093C57.6881 21.7106 57.5032 21.4269 57.3482 21.0284C57.2314 20.728 57.0922 20.2764 57.0543 19.4444C57.0134 18.5449 57.0053 18.2746 57.0053 15.9959C57.0053 13.7171 57.0134 13.4483 57.0543 12.5487C57.0924 11.7167 57.2314 11.2651 57.3482 10.9643C57.5029 10.5661 57.6881 10.2817 57.9868 9.983C58.2855 9.68433 58.5699 9.49944 58.9681 9.34441C59.2689 9.22708 59.7207 9.08841 60.5527 9.05019C61.3399 9.01463 61.645 9.00397 63.2354 9.00219V9.00432ZM68.556 10.4212C67.9906 10.4212 67.532 10.8794 67.532 11.4449C67.532 12.0102 67.9906 12.4689 68.556 12.4689C69.1213 12.4689 69.58 12.0102 69.58 11.4449C69.58 10.8795 69.1213 10.4212 68.556 10.4212ZM64.0009 11.6177C61.5808 11.6177 59.6187 13.5798 59.6187 16C59.6187 18.4201 61.5808 20.3813 64.0009 20.3813C66.4211 20.3813 68.3825 18.4201 68.3825 16C68.3825 13.5798 66.4211 11.6177 64.0009 11.6177ZM64.0009 13.1555C65.5718 13.1555 66.8454 14.4289 66.8454 16C66.8454 17.5708 65.5718 18.8444 64.0009 18.8444C62.4299 18.8444 61.1564 17.5708 61.1564 16C61.1564 14.4289 62.4299 13.1555 64.0009 13.1555Z" fill="#131313"/>
<circle cx="112" cy="16" r="16" fill="#F9F9F9"/>
<path d="M112 4C105.373 4 100 9.50847 100 16.3038C100 21.74 103.438 26.3519 108.206 27.9789C108.806 28.0927 109.026 27.7119 109.026 27.387C109.026 27.0936 109.015 26.1244 109.01 25.0963C105.672 25.8405 104.967 23.6446 104.967 23.6446C104.421 22.2224 103.635 21.8443 103.635 21.8443C102.546 21.0806 103.717 21.0963 103.717 21.0963C104.922 21.1831 105.556 22.3642 105.556 22.3642C106.627 24.2452 108.364 23.7014 109.048 23.387C109.156 22.5918 109.467 22.049 109.81 21.7418C107.145 21.4307 104.343 20.3757 104.343 15.6612C104.343 14.3179 104.812 13.2203 105.579 12.3587C105.455 12.0488 105.044 10.7974 105.696 9.10261C105.696 9.10261 106.703 8.77193 108.996 10.3638C109.954 10.0912 110.98 9.95447 112 9.94979C113.02 9.95447 114.047 10.0912 115.006 10.3638C117.297 8.77193 118.303 9.10261 118.303 9.10261C118.956 10.7974 118.545 12.0488 118.421 12.3587C119.19 13.2203 119.656 14.3179 119.656 15.6612C119.656 20.3869 116.848 21.4274 114.176 21.732C114.607 22.1138 114.99 22.8626 114.99 24.0105C114.99 25.6568 114.976 26.9817 114.976 27.387C114.976 27.7144 115.192 28.098 115.801 27.9772C120.566 26.3485 124 21.7381 124 16.3038C124 9.50847 118.627 4 112 4Z" fill="#131313"/>
<path d="M104.58 21.5812C104.554 21.6417 104.46 21.6598 104.375 21.6183C104.288 21.5785 104.239 21.496 104.268 21.4353C104.293 21.373 104.387 21.3556 104.474 21.3974C104.561 21.4371 104.611 21.5204 104.58 21.5812Z" fill="#131313"/>
<path d="M105.066 22.1315C105.008 22.1853 104.897 22.1603 104.821 22.0752C104.743 21.9903 104.728 21.8767 104.786 21.822C104.845 21.7682 104.953 21.7934 105.032 21.8783C105.11 21.9642 105.125 22.077 105.066 22.1315Z" fill="#131313"/>
<path d="M105.538 22.8331C105.464 22.885 105.344 22.8364 105.27 22.728C105.197 22.6197 105.197 22.4898 105.272 22.4377C105.346 22.3857 105.464 22.4325 105.54 22.54C105.613 22.6502 105.613 22.7801 105.538 22.8331Z" fill="#131313"/>
<path d="M106.185 23.511C106.119 23.5846 105.979 23.5648 105.877 23.4644C105.772 23.3661 105.743 23.2267 105.809 23.1531C105.875 23.0793 106.016 23.1 106.119 23.1997C106.223 23.2977 106.255 23.4381 106.185 23.511Z" fill="#131313"/>
<path d="M107.077 23.9046C107.048 24 106.914 24.0433 106.778 24.0028C106.643 23.961 106.554 23.8493 106.581 23.7528C106.61 23.6568 106.745 23.6116 106.881 23.655C107.017 23.6966 107.106 23.8075 107.077 23.9046Z" fill="#131313"/>
<path d="M108.058 23.9776C108.061 24.0781 107.946 24.1614 107.804 24.1632C107.66 24.1664 107.545 24.0851 107.543 23.9863C107.543 23.8848 107.655 23.8023 107.799 23.7999C107.941 23.797 108.058 23.8777 108.058 23.9776Z" fill="#131313"/>
<path d="M108.97 23.8196C108.987 23.9177 108.888 24.0183 108.747 24.0452C108.607 24.071 108.479 24.0105 108.461 23.9132C108.444 23.8128 108.545 23.7121 108.683 23.6861C108.825 23.6611 108.952 23.72 108.97 23.8196Z" fill="#131313"/>
<path fill-rule="evenodd" clip-rule="evenodd" d="M144 16C144 7.16344 151.163 0 160 0C168.837 0 176 7.16344 176 16C176 24.8366 168.837 32 160 32C151.163 32 144 24.8366 144 16Z" fill="#F9F9F9"/>
<path d="M155.546 9.8818C155.522 8.8136 154.759 8 153.518 8C152.278 8 151.467 8.8136 151.467 9.8818C151.467 10.9279 152.254 11.7649 153.471 11.7649H153.494C154.759 11.7649 155.546 10.9279 155.546 9.8818Z" fill="#131313"/>
<path d="M155.307 13.252H151.681V24.1464H155.307V13.252Z" fill="#131313"/>
<path d="M164.209 12.9961C166.595 12.9961 168.384 14.5535 168.384 17.8998L168.384 24.1464H164.758V18.3178C164.758 16.8538 164.233 15.8548 162.92 15.8548C161.919 15.8548 161.322 16.5283 161.06 17.1788C160.964 17.4119 160.941 17.7367 160.941 18.0623V24.1467H157.314C157.314 24.1467 157.362 14.2745 157.314 13.2522H160.941V14.7953C161.422 14.0535 162.284 12.9961 164.209 12.9961Z" fill="#131313"/>
</g>
<defs>
<clipPath id="clip0_921_833">
<rect width="176" height="32" fill="white"/>
</clipPath>
</defs>
</svg>
