<svg xmlns="http://www.w3.org/2000/svg" width="284" height="63" viewBox="0 0 284 63" fill="none">
  <path d="M19.5024 48.7406C16.2059 48.7406 13.2052 48.1921 10.5003 47.0952C7.83773 45.9983 5.59778 44.4373 3.78045 42.4122C1.96313 40.3871 0.716356 38.0245 0.0401421 35.3244L8.3449 32.0969C9.19016 34.5861 10.606 36.569 12.5924 38.0456C14.5787 39.48 16.8187 40.1972 19.3122 40.1972C20.7492 40.1972 21.996 39.9652 23.0525 39.5011C24.1514 38.9948 24.9967 38.3198 25.5884 37.476C26.2223 36.6322 26.5393 35.683 26.5393 34.6283C26.5393 33.6157 26.2223 32.7508 25.5884 32.0336C24.9544 31.3164 23.9189 30.7258 22.482 30.2617L14.1138 27.4139C10.6482 26.2326 8.07018 24.6083 6.37965 22.541C4.73138 20.4316 3.90724 17.858 3.90724 14.8204C3.90724 12.0359 4.64685 9.54677 6.12607 7.35293C7.64755 5.1169 9.67619 3.34495 12.212 2.03709C14.7901 0.72922 17.6851 0.0752869 20.8971 0.0752869C23.8978 0.0752869 26.6027 0.581557 29.0117 1.5941C31.463 2.56445 33.5127 3.95669 35.161 5.77083C36.8093 7.58497 37.9504 9.73662 38.5843 12.2258L30.343 15.4533C29.6668 13.3016 28.4623 11.6351 26.7295 10.4538C25.0389 9.23035 23.0103 8.6186 20.6435 8.6186C19.2488 8.6186 18.0232 8.85064 16.9666 9.31473C15.9523 9.73662 15.1493 10.3484 14.5576 11.15C14.0082 11.9516 13.7335 12.9008 13.7335 13.9977C13.7335 15.1368 14.0716 16.0861 14.7478 16.8455C15.424 17.6049 16.4806 18.2377 17.9175 18.744L26.0955 21.5918C29.5611 22.7731 32.1392 24.3763 33.8297 26.4014C35.5625 28.4264 36.4289 30.9367 36.4289 33.9321C36.4289 36.7166 35.647 39.2269 34.0833 41.4629C32.5618 43.6989 30.512 45.4709 27.934 46.7788C25.3982 48.0866 22.5877 48.7406 19.5024 48.7406Z" fill="white"/>
  <path d="M39.1163 47.9811L45.8361 0.0752869H55.4088L51.0979 30.7679L46.7237 29.6288L64.2841 13.4282H76.8997L62.3822 27.3506L72.0183 47.9811H61.8117L53.8239 30.4515L58.9589 29.0593L46.7237 40.5769L50.464 35.0712L48.6889 47.9811H39.1163Z" fill="white"/>
  <path d="M74.4868 47.9811L79.3048 13.4282H88.8774L84.0594 47.9811H74.4868ZM79.7485 10.3273L81.0798 0.834691H90.6525L89.3212 10.3273H79.7485Z" fill="white"/>
  <path d="M89.2415 47.9811L95.9613 0.0752869H105.534L98.8141 47.9811H89.2415Z" fill="white"/>
  <path d="M103.996 47.9811L110.716 0.0752869H120.289L113.569 47.9811H103.996Z" fill="white"/>
  <path d="M138.594 48.7406C135.297 48.7406 132.296 48.1921 129.591 47.0952C126.929 45.9983 124.689 44.4373 122.872 42.4122C121.054 40.3871 119.807 38.0245 119.131 35.3244L127.436 32.0969C128.281 34.5861 129.697 36.569 131.683 38.0456C133.67 39.48 135.91 40.1972 138.403 40.1972C139.84 40.1972 141.087 39.9652 142.144 39.5011C143.242 38.9948 144.088 38.3198 144.679 37.476C145.313 36.6322 145.63 35.683 145.63 34.6283C145.63 33.6157 145.313 32.7508 144.679 32.0336C144.045 31.3164 143.01 30.7258 141.573 30.2617L133.205 27.4139C129.739 26.2326 127.161 24.6083 125.471 22.541C123.822 20.4316 122.998 17.858 122.998 14.8204C122.998 12.0359 123.738 9.54677 125.217 7.35293C126.739 5.1169 128.767 3.34495 131.303 2.03709C133.881 0.72922 136.776 0.0752869 139.988 0.0752869C142.989 0.0752869 145.694 0.581557 148.103 1.5941C150.554 2.56445 152.604 3.95669 154.252 5.77083C155.9 7.58497 157.041 9.73662 157.675 12.2258L149.434 15.4533C148.758 13.3016 147.553 11.6351 145.821 10.4538C144.13 9.23035 142.101 8.6186 139.735 8.6186C138.34 8.6186 137.114 8.85064 136.058 9.31473C135.043 9.73662 134.24 10.3484 133.649 11.15C133.099 11.9516 132.825 12.9008 132.825 13.9977C132.825 15.1368 133.163 16.0861 133.839 16.8455C134.515 17.6049 135.572 18.2377 137.009 18.744L145.187 21.5918C148.652 22.7731 151.23 24.3763 152.921 26.4014C154.654 28.4264 155.52 30.9367 155.52 33.9321C155.52 36.7166 154.738 39.2269 153.174 41.4629C151.653 43.6989 149.603 45.4709 147.025 46.7788C144.489 48.0866 141.679 48.7406 138.594 48.7406Z" fill="white"/>
  <path d="M161.948 62.0302C160.807 62.0302 159.771 61.9247 158.841 61.7137C157.912 61.5028 157.109 61.2075 156.432 60.8278L157.003 53.2337C157.595 53.4025 158.271 53.529 159.031 53.6134C159.792 53.74 160.447 53.8033 160.997 53.8033C162.18 53.8033 163.173 53.5712 163.976 53.1071C164.822 52.6431 165.54 52.0524 166.132 51.3352C166.723 50.618 167.252 49.9008 167.717 49.1835L170.886 44.0576L169.999 51.968L160.236 13.4282H169.999L176.212 40.8301H172.344L186.291 13.4282H197.005L176.782 51.4618C175.514 53.8665 174.12 55.8494 172.598 57.4104C171.077 58.9714 169.428 60.1316 167.653 60.8911C165.878 61.6505 163.976 62.0302 161.948 62.0302Z" fill="white"/>
  <path d="M194.568 47.9811L199.386 13.4282H208.262L207.374 20.2628L206.994 18.4909C208.093 16.4236 209.551 14.947 211.368 14.061C213.228 13.1329 215.32 12.6688 217.644 12.6688C220.307 12.6688 222.568 13.3016 224.427 14.5673C226.287 15.7908 227.639 17.4572 228.485 19.5667C229.372 21.6762 229.626 24.0388 229.245 26.6545L226.266 47.9811H216.757L219.546 27.7936C219.842 25.8107 219.483 24.2286 218.468 23.0473C217.454 21.8238 216.017 21.2121 214.157 21.2121C212.932 21.2121 211.791 21.4863 210.734 22.0348C209.72 22.5832 208.875 23.3426 208.198 24.313C207.522 25.2833 207.078 26.4436 206.867 27.7936L204.078 47.9811H194.568Z" fill="white"/>
  <path d="M249.255 48.7406C245.916 48.7406 242.916 48.0022 240.253 46.5256C237.633 45.049 235.562 43.0239 234.04 40.4504C232.561 37.8768 231.821 34.9658 231.821 31.7172C231.821 29.0593 232.329 26.5701 233.343 24.2497C234.357 21.9293 235.752 19.9042 237.527 18.1745C239.302 16.4447 241.352 15.0946 243.676 14.1243C246.043 13.1539 248.579 12.6688 251.284 12.6688C253.904 12.6688 256.292 13.1329 258.447 14.061C260.603 14.947 262.42 16.1916 263.899 17.7948C265.379 19.398 266.393 21.2754 266.942 23.427L258.511 26.7178C258.046 24.988 257.158 23.638 255.848 22.6676C254.538 21.6973 252.974 21.2121 251.157 21.2121C249.255 21.2121 247.586 21.6973 246.149 22.6676C244.754 23.638 243.655 24.9247 242.852 26.5279C242.091 28.1311 241.711 29.8609 241.711 31.7172C241.711 33.4048 242.028 34.8814 242.662 36.1471C243.296 37.4128 244.183 38.4042 245.325 39.1214C246.508 39.8386 247.86 40.1972 249.382 40.1972C251.368 40.1972 253.101 39.6699 254.58 38.6151C256.059 37.5604 257.158 36.1682 257.877 34.4384L265.928 38.2987C265.125 40.3238 263.899 42.1379 262.251 43.7411C260.645 45.3021 258.722 46.5256 256.482 47.4116C254.242 48.2976 251.833 48.7406 249.255 48.7406Z" fill="white"/>
  <path d="M273.096 47.9811L274.491 38.4886H284L282.605 47.9811H273.096Z" fill="white"/>
</svg>